<?xml version="1.0" ?><svg enable-background="new 0 0 512 512" id="Layer_1" version="1.1" viewBox="0 0 512 512" xml:space="preserve" xmlns="http://www.w3.org/2000/svg" xmlns:xlink="http://www.w3.org/1999/xlink"><g><g><g><path d="M480.2,407.4c-17.8,0-35.7,0-53.5,0c-41.5,0-83,0-124.6,0c-47.3,0-94.6,0-141.8,0c-35,0-70,0-105,0     c-7.4,0-14.9,0.1-22.3,0c-5.9,0-11.3-3.2-12.1-9.5c-0.5-4.1-0.1-8.5-0.1-12.7c0-4.4-0.2-8.8,0-13.2c0.5-11.7,11.1-11,19.4-11     c11.1,0,22.3,0,33.4,0c39.6,0,79.1,0,118.7,0c47.5,0,95.1,0,142.6,0c37.6,0,75.2,0,112.7,0c9.4,0,18.8,0,28.2,0     c1.4,0,2.9-0.1,4.3,0c12.7,0.5,10.9,13.8,10.9,22.7C491.1,392.7,493.2,406.9,480.2,407.4c-9.6,0.4-9.7,15.4,0,15     c9.3-0.3,18-4.9,22.6-13.2c3-5.4,3.3-11.1,3.3-17.1c0-10.7,2.1-24.5-4-34c-7.5-11.6-19.1-12.1-31-12.1c-30.4,0-60.8,0-91.2,0     c-47.8,0-95.6,0-143.4,0c-45.1,0-90.2,0-135.3,0c-22.9,0-45.7-0.2-68.6,0c-9.6,0.1-18.7,4.6-23.5,13.2     c-5.4,9.8-3.3,23.5-3.3,34.3c0,6.1,0.8,12.1,4.4,17.3c4.9,7.3,12.8,11.3,21.5,11.6c1.4,0,2.8,0,4.2,0c27.1,0,54.1,0,81.2,0     c46.6,0,93.2,0,139.8,0c46.5,0,92.9,0,139.4,0c26.7,0,53.3,0,80,0c1.3,0,2.5,0,3.8,0C489.9,422.4,489.9,407.4,480.2,407.4z"/></g></g><g><g><path d="M229.7,346c-42.8,0-85.6,0-128.4,0c-6.2,0-12.3,0-18.5,0c2.5,2.5,5,5,7.5,7.5c0-4.8-1.4-12.5,1.2-16.7     c2.2-3.4,5.6-3.6,9.2-3.6c10.3,0,20.6,0,30.9,0c26.1,0,52.1,0,78.2,0c3,0,6.6-0.5,9.2,1.4c5.2,3.7,3.3,13.4,3.3,18.9     c0,9.7,15,9.7,15,0c0-7.3,1-15.4-2.2-22.2c-4-8.4-12.2-13-21.3-13.1c-10-0.1-20,0-30,0c-27.7,0-55.5,0-83.2,0     c-7.8,0-15.1,2.3-20.1,8.7c-6.1,7.7-5,17.3-5,26.6c0,4.1,3.4,7.5,7.5,7.5c42.8,0,85.6,0,128.4,0c6.2,0,12.3,0,18.5,0     C239.3,361,239.4,346,229.7,346z"/></g></g><g><g><path d="M184.7,318.2c-19,0-38,0-57,0c2.5,2.5,5,5,7.5,7.5c0-11.5,0-23.1,0-34.6c0-11.4-0.6-22.9,0-34.3     c0.5-9.8,8.5-15.7,17.9-15.7c8.5,0,17.2-0.2,22,8.3c2.5,4.4,2.1,9.1,2.1,13.9c0,7.1,0,14.3,0,21.4c0,13.7,0,27.3,0,41     c0,9.7,15,9.7,15,0c0-13,0-26,0-39.1c0-7.9,0-15.8,0-23.6c0-6.8-0.3-13.2-3.3-19.5c-5.5-11.4-17.3-17.4-29.6-17.4     c-11.1-0.1-21.6,0.8-29.9,9.2c-11.7,11.7-9.2,29.1-9.2,44.2c0,15.4,0,30.9,0,46.3c0,4.1,3.4,7.5,7.5,7.5c19,0,38,0,57,0     C194.4,333.2,194.4,318.2,184.7,318.2z"/></g></g><g><g><path d="M128.9,246.6c-22.8,0-45.7,0-68.5,0c-3.1,0-6.5,0.3-9.6-0.3c-9.3-1.7-15.8-9.9-16-19.2c-0.2-7.3,0-14.6,0-21.8     c0-26,0-52.1,0-78.1c0-3.8,0-7.4,1.6-11c3.2-7.1,10.2-11.4,17.9-11.5c4.8-0.1,9.6,0,14.4,0c53.7,0,107.5,0,161.2,0     c8.1,0,16.2,0,24.3,0c9.3,0,18.4,2.5,22.2,12.2c2.8,7.1,1.4,16.9,1.4,24.3c0,14.6,0,29.3,0,43.9c0,12.2,0,24.3,0,36.5     c0,2.3,0.1,4.7,0,7c-0.6,9-7.7,16.6-16.7,17.9c-3.1,0.4-6.4,0.1-9.5,0.1c-6.1,0-12.2,0-18.4,0c-13.8,0-27.7,0-41.5,0     c-2.7,0-5.3,0-8,0c-9.7,0-9.7,15,0,15c23.7,0,47.4,0,71.1,0c5.5,0,10.9-0.3,16.1-2.4c10.5-4.2,18.8-13.4,21.1-24.6     c1.9-8.8,0.8-18.7,0.8-27.6c0-26.8,0-53.7,0-80.5c0-17.2-10.5-33.3-28.3-36.2c-5.9-1-12-0.6-18-0.6c-55.5,0-111.1,0-166.6,0     c-7.7,0-15.4,0-23.1,0c-15.1,0-28.8,7.4-34.5,22c-3.6,9-2.4,20-2.4,29.5c0,15,0,29.9,0,44.9c0,12.4,0,24.8,0,37.3     c0,4.2,0,8.4,1.1,12.6c2.8,11.1,11.4,20,22.1,23.8c10.1,3.6,23.1,1.9,33.6,1.9c14.6,0,29.1,0,43.7,0c2.9,0,5.8,0,8.7,0     C138.5,261.6,138.6,246.6,128.9,246.6L128.9,246.6z"/></g></g><g><g><g><path d="M480.4,346c-44.7,0-89.3,0-134,0c-1.7,0-4.8,0.6-6.5,0c-2.2-0.8-1.1-6.1-1.1-8.3c0-3.7,0-7.4,0-11c0-2.1-0.6-5.4,0-7.4      c0.5-1.7,1.4-1.3,3.2-1.3c23.4,0,46.7,0,70.1,0c22.8,0,45.6,0,68.4,0c9.7,0,9.7-15,0-15c-45.9,0-91.9,0-137.8,0      c-4.1,0-8,0.3-11.6,2.6c-7.5,4.8-7.2,13-7.2,20.7c0,6.2-0.3,12.5,0,18.7c0.4,9.3,7.1,15.8,16.4,16.1c22.2,0.8,44.7,0,66.9,0      c24.4,0,48.9,0,73.3,0C490,361,490,346,480.4,346L480.4,346z"/></g></g></g><g><g><path d="M379,310.4c0,14.4,0,28.7,0,43.1c0,9.7,15,9.7,15,0c0-14.4,0-28.7,0-43.1C394,300.7,379,300.7,379,310.4L379,310.4z"/></g></g><g><g><g><path d="M442.9,302.9c-14.7,0-29.5,0-44.2,0c-8.4,0-16.8,0-25.2,0c-1.1,0-3.1-0.4-4.1,0c0,0,0,0,0,0c1.6,1.1,2.2,1.3,1.7,0.4      c-0.2,0.3-0.1-2.4-0.3-1.3c0-0.2,0-0.5,0-0.7c-0.1-1.8,0-3.6,0-5.4c0-4.8,0-9.7,0-14.5c0-1.6-0.1-3.3,0-4.9c0-0.2,0-0.5,0-0.7      c0.2,1.1,0.1-1.6,0.3-1.3c0.5-0.9-0.1-0.8-1.7,0.4c0,0,0,0,0,0c0.8,0.3,2.4,0,3.2,0c2.6,0,5.2,0,7.8,0c19,0,37.9,0,56.9,0      c14.4,0,28.8,0,43.1,0c9.7,0,9.7-15,0-15c-33.7,0-67.3,0-101,0c-4.5,0-9.9-0.7-14.2,0.8c-12,4.2-9.5,20.3-9.5,30.2      c0,10.6-1,26.2,13.6,27.1c5.6,0.4,11.3,0,16.9,0c18.9,0,37.8,0,56.7,0C452.6,317.9,452.6,302.9,442.9,302.9L442.9,302.9z"/></g></g></g><g><g><path d="M410.9,267.3c0,14.4,0,28.7,0,43.1c0,9.7,15,9.7,15,0c0-14.4,0-28.7,0-43.1C425.9,257.6,410.9,257.6,410.9,267.3     L410.9,267.3z"/></g></g><g><g><path d="M435.4,310.4c0,14.4,0,28.7,0,43.1c0,9.7,15,9.7,15,0c0-14.4,0-28.7,0-43.1C450.4,300.7,435.4,300.7,435.4,310.4     L435.4,310.4z"/></g></g></g><g><g><path d="M173.2,189c-10,7.7-23.8,8.7-33.7,0.1c-8.5-7.4-11.4-19.8-6.7-30.1c4.7-10.2,15.8-16.3,26.9-14.8    c11,1.5,20.4,10.6,21.9,21.7c0.5,4,3.1,7.5,7.5,7.5c3.6,0,8-3.5,7.5-7.5c-1.8-13.8-9.3-26.3-22.1-32.6    c-12.4-6.1-27.5-5.8-39.4,1.5c-25.1,15.3-25.5,51.8-1.6,68.4c14.1,9.8,33.8,9,47.3-1.4c3.2-2.5,4.9-6.4,2.7-10.3    C181.7,188.5,176.4,186.6,173.2,189L173.2,189z"/></g></g></svg>